<?xml version="1.0" standalone="no"?>
<!DOCTYPE svg PUBLIC "-//W3C//DTD SVG 20010904//EN"
 "http://www.w3.org/TR/2001/REC-SVG-20010904/DTD/svg10.dtd">
<svg version="1.0" xmlns="http://www.w3.org/2000/svg"
 width="474.000000pt" height="474.000000pt" viewBox="0 0 474.000000 474.000000"
 preserveAspectRatio="xMidYMid meet">

<g transform="translate(0.000000,474.000000) scale(0.100000,-0.100000)"
fill="#000000" stroke="none">
<path d="M753 4296 c-91 -29 -176 -106 -220 -201 l-28 -60 -3 -1750 c-2 -1575
-1 -1755 14 -1805 32 -114 110 -199 220 -240 53 -19 75 -20 917 -20 474 0 876
4 892 9 98 28 184 101 231 197 l29 59 3 577 c1 318 0 578 -3 578 -4 0 -58 -48
-121 -107 l-114 -108 0 -192 0 -193 -910 0 -910 0 0 1345 0 1345 233 0 234 0
57 85 c136 205 336 367 569 461 l82 34 -565 -1 c-436 0 -575 -3 -607 -13z
m992 -3465 c199 -90 146 -389 -72 -408 -152 -13 -271 137 -223 282 28 84 114
145 205 145 28 0 68 -9 90 -19z" fill="#0c9869"/>
<path d="M2136 4119 c-424 -62 -755 -395 -842 -846 -24 -124 -22 -320 4 -443
90 -420 381 -725 775 -811 40 -9 57 -17 57 -28 0 -9 -13 -128 -29 -265 -17
-144 -26 -259 -21 -270 14 -37 49 -61 89 -61 43 0 6 -31 444 383 l235 222 185
0 c256 0 383 24 532 102 268 139 457 385 536 698 21 83 24 117 23 270 -1 155
-4 186 -26 271 -36 134 -80 233 -149 338 -163 248 -410 405 -690 441 -100 12
-1037 12 -1123 -1z m1315 -707 c33 -37 37 -77 14 -122 -8 -16 -24 -34 -34 -40
-13 -6 -262 -10 -733 -10 -660 0 -715 2 -734 18 -64 52 -53 152 20 182 11 5
340 8 729 7 l709 -2 29 -33z m-673 -551 c56 -30 67 -113 23 -163 l-29 -33
-397 0 -397 0 -30 34 c-27 30 -30 39 -25 79 7 62 33 86 105 92 118 10 727 3
750 -9z" fill="#0c9869"/>
</g>
</svg>
