<svg version="1.0" xmlns="http://www.w3.org/2000/svg"
 width="48.000000pt" height="48.000000pt" viewBox="0 0 48.000000 48.000000"
 preserveAspectRatio="xMidYMid meet">

<g transform="translate(0.000000,48.000000) scale(0.100000,-0.100000)"
fill="#000000" stroke="none">

<path d="M366 441 c-3 -4 -32 -18 -65 -30 -70 -25 -82 -38 -85 -90 -1 -22 -7
-45 -13 -53 -6 -7 -16 -31 -23 -53 -7 -22 -15 -34 -18 -27 -2 7 1 26 8 41 23
56 -42 141 -107 141 -20 0 -23 -5 -23 -43 0 -52 15 -108 32 -119 7 -4 28 -8
45 -8 36 0 38 -3 47 -99 6 -63 10 -68 51 -73 23 -2 29 1 26 12 -9 38 -5 44 36
52 60 13 89 47 96 111 5 58 3 65 -15 49 -7 -5 -32 -15 -56 -21 -55 -15 -76
-47 -67 -101 4 -25 3 -40 -3 -40 -15 0 -26 103 -15 146 l8 37 57 1 c77 1 91
17 98 106 5 64 0 84 -14 61z m4 -64 c0 -23 -7 -52 -15 -64 -17 -24 -64 -38
-96 -28 -20 7 -19 9 17 46 46 47 34 53 -13 7 l-33 -32 0 26 c0 30 18 47 74 70
61 25 66 23 66 -25z m-270 -32 c16 -8 36 -25 44 -37 18 -25 22 -78 6 -78 -5 0
-10 3 -10 8 0 13 -62 83 -68 77 -3 -3 4 -15 15 -28 11 -12 28 -34 38 -49 l17
-28 -30 0 c-38 0 -49 18 -58 94 -7 62 -3 66 46 41z m251 -189 c-9 -23 -69 -62
-79 -51 -8 7 30 65 54 84 15 12 25 24 22 26 -9 9 -58 -36 -75 -68 -16 -31 -16
-31 -26 -10 -14 33 13 68 65 84 43 14 43 14 46 -12 2 -14 -2 -37 -7 -53z
m-132 -89 c10 -26 9 -28 -11 -25 -20 3 -23 10 -26 58 -2 30 0 71 4 90 7 33 8
30 15 -30 4 -36 12 -78 18 -93z" fill="#0c9869" />
</g>
</svg>
